<svg xmlns="http://www.w3.org/2000/svg" width="149.01" height="21.945" viewBox="0 0 149.01 21.945">
  <g id="Group_3074" data-name="Group 3074" transform="translate(-14814.291 10160)">
    <text id="Request_Collaboration" data-name="Request Collaboration" transform="translate(14841.301 -10145.527)" fill="#fff" font-size="11" font-family="MuseoSans-900, Museo Sans" font-weight="900"><tspan x="0" y="0">Request Collaboration</tspan></text>
    <g id="Group_3059" data-name="Group 3059" transform="translate(14814.291 -10160)">
      <path id="Path_78" data-name="Path 78" d="M647.132,458.626a1.663,1.663,0,0,0,1.124,1.584,1.465,1.465,0,0,1-1.462,1.411h-.813a1.466,1.466,0,0,1-1.465-1.464v-6.665a2.44,2.44,0,0,0-2.437-2.437h-.813a2.439,2.439,0,0,0-2.437,2.437v8.94h.972v-8.94a1.466,1.466,0,0,1,1.464-1.464h.813a1.466,1.466,0,0,1,1.464,1.464v6.665a2.44,2.44,0,0,0,2.437,2.437h.813a2.438,2.438,0,0,0,2.434-2.373,1.662,1.662,0,0,0,1.156-1.595v-1.474h-3.251Zm2.267-7.114a.658.658,0,1,0-1.315,0v.59H649.4Zm-2.267,4.989h3.251v-.772h-3.251Zm2.267-2.264v-1.593h-1.315v1.593h-.952v.842h3.251v-.842Z" transform="translate(-633.886 -445.783)" fill="#fff"/>
      <g id="Ellipse_371" data-name="Ellipse 371" transform="translate(0 0)" fill="none" stroke="#fff" stroke-width="1">
        <circle cx="10.973" cy="10.973" r="10.973" stroke="none"/>
        <circle cx="10.973" cy="10.973" r="10.473" fill="none"/>
      </g>
    </g>
  </g>
</svg>
